<?xml version="1.0" encoding="UTF-8" standalone="no"?>
<!DOCTYPE svg PUBLIC "-//W3C//DTD SVG 1.0//EN" "http://www.w3.org/TR/2001/PR-SVG-20010719/DTD/svg10.dtd">
<svg width="71cm" height="18cm" viewBox="0 -163 1411 358" xmlns="http://www.w3.org/2000/svg" xmlns:xlink="http://www.w3.org/1999/xlink">

  <g id="背景">
    <path style="fill: #0000ff; fill-opacity: 1; stroke-opacity: 1; stroke-width: 0.02; stroke-linecap: round; stroke: #0000ff" fill-rule="evenodd" d="M 37.0312 91.5625 C 47.6562,91.5625 56.0938,87.1875 62.6562,79.375 L 55.7812,71.25 C 50.7812,76.5625 45.1562,80 37.3438,80 C 22.6562,80 13.5938,68.125 13.5938,48.125 C 13.5938,28.75 23.2812,16.875 37.6562,16.875 C 44.5312,16.875 49.5312,19.6875 53.9062,24.375 L 61.0938,15.9375 C 56.0938,10.3125 47.9688,5.3125 37.3438,5.3125 C 16.4062,5.3125 0.15625,21.5625 0.15625,48.75 C 0.15625,75.9375 16.0938,91.5625 37.0312,91.5625 L 37.0312,91.5625M 101.172 91.5625 C 116.484,91.5625 130.234,79.6875 130.234,59.0625 C 130.234,38.4375 116.484,26.25 101.172,26.25 C 85.8594,26.25 71.7969,38.4375 71.7969,59.0625 C 71.7969,79.6875 85.8594,91.5625 101.172,91.5625 L 101.172,91.5625M 101.172 80.9375 C 91.4844,80.9375 85.2344,72.1875 85.2344,59.0625 C 85.2344,45.9375 91.4844,37.1875 101.172,37.1875 C 110.859,37.1875 117.109,45.9375 117.109,59.0625 C 117.109,72.1875 110.859,80.9375 101.172,80.9375 L 101.172,80.9375M 145.547 90 L 158.672,90 L 158.672,45.9375 C 163.672,40.3125 168.359,37.5 172.422,37.5 C 179.609,37.5 183.047,41.875 183.047,52.5 L 183.047,90 L 195.859,90 L 195.859,45.9375 C 201.172,40.3125 205.547,37.5 209.922,37.5 C 216.797,37.5 220.234,41.875 220.234,52.5 L 220.234,90 L 233.359,90 L 233.359,50.9375 C 233.359,35.3125 227.109,26.25 214.297,26.25 C 206.484,26.25 199.922,31.25 193.984,37.8125 C 191.172,30.625 186.172,26.25 176.797,26.25 C 168.984,26.25 163.047,30.9375 157.734,36.5625 L 157.422,36.5625 L 156.172,27.8125 L 145.547,27.8125 L 145.547,90M 251.875 90 L 265,90 L 265,45.9375 C 270,40.3125 274.688,37.5 278.75,37.5 C 285.938,37.5 289.375,41.875 289.375,52.5 L 289.375,90 L 302.188,90 L 302.188,45.9375 C 307.5,40.3125 311.875,37.5 316.25,37.5 C 323.125,37.5 326.562,41.875 326.562,52.5 L 326.562,90 L 339.688,90 L 339.688,50.9375 C 339.688,35.3125 333.438,26.25 320.625,26.25 C 312.812,26.25 306.25,31.25 300.312,37.8125 C 297.5,30.625 292.5,26.25 283.125,26.25 C 275.312,26.25 269.375,30.9375 264.062,36.5625 L 263.75,36.5625 L 262.5,27.8125 L 251.875,27.8125 L 251.875,90M 365.391 91.5625 C 370.078,91.5625 374.141,87.8125 374.141,82.5 C 374.141,76.875 370.078,73.125 365.391,73.125 C 360.391,73.125 356.641,76.875 356.641,82.5 C 356.641,87.8125 360.391,91.5625 365.391,91.5625 L 365.391,91.5625M 418.516 90 L 466.953,90 L 466.953,79.0625 L 431.641,79.0625 L 431.641,6.875 L 418.516,6.875 L 418.516,90M 494.922 91.5625 C 502.422,91.5625 508.984,87.8125 514.922,82.8125 L 515.234,82.8125 L 516.172,90 L 526.797,90 L 526.797,52.8125 C 526.797,36.25 519.609,26.25 504.297,26.25 C 494.297,26.25 485.547,30.3125 479.297,34.375 L 483.984,43.4375 C 489.297,40 495.547,36.875 502.109,36.875 C 511.172,36.875 513.672,43.4375 513.984,50.625 C 488.047,53.4375 476.797,60.3125 476.797,73.4375 C 476.797,84.375 484.297,91.5625 494.922,91.5625 L 494.922,91.5625M 498.984 81.25 C 493.359,81.25 489.297,78.75 489.297,72.5 C 489.297,65.625 495.547,60.9375 513.984,58.75 L 513.984,74.0625 C 508.672,78.75 504.297,81.25 498.984,81.25 L 498.984,81.25M 574.219 91.5625 C 588.281,91.5625 600.781,79.375 600.781,57.8125 C 600.781,38.75 592.031,26.25 576.406,26.25 C 569.844,26.25 562.969,30 557.656,34.375 L 558.281,23.75 L 558.281,0 L 545.156,0 L 545.156,90 L 555.469,90 L 556.719,83.4375 L 557.031,83.4375 C 562.344,88.4375 568.594,91.5625 574.219,91.5625 L 574.219,91.5625M 571.719 80.625 C 567.969,80.625 562.969,79.375 558.281,75 L 558.281,44.6875 C 563.281,39.6875 567.969,37.1875 572.969,37.1875 C 583.281,37.1875 587.344,45.3125 587.344,58.125 C 587.344,72.8125 580.781,80.625 571.719,80.625 L 571.719,80.625M 623.359 91.5625 C 628.047,91.5625 632.109,87.8125 632.109,82.5 C 632.109,76.875 628.047,73.125 623.359,73.125 C 618.359,73.125 614.609,76.875 614.609,82.5 C 614.609,87.8125 618.359,91.5625 623.359,91.5625 L 623.359,91.5625z"/>
    <path style="fill: none; stroke-opacity: 1; stroke-width: 6; stroke: #0000ff" d="M 340,20 A 10,10 0 0 1 350,30"/>
    <path style="fill: none; stroke-opacity: 1; stroke-width: 6; stroke: #0000ff" d="M 340,10 A 20,20 0 0 1 360,30"/>
    <path style="fill: none; stroke-opacity: 1; stroke-width: 6; stroke: #0000ff" d="M 340,4.44089e-15 A 30,30 0 0 1 370,30"/>
    <path style="fill: none; stroke-opacity: 1; stroke-width: 6; stroke: #0000ff" d="M 410,10 A 10,10 0 0 1 420,0"/>
    <path style="fill: none; stroke-opacity: 1; stroke-width: 6; stroke: #0000ff" d="M 400,10 A 20,20 0 0 1 420,-10"/>
    <path style="fill: none; stroke-opacity: 1; stroke-width: 6; stroke: #0000ff" d="M 390,10 A 30,30 0 0 1 420,-20"/>
    <path style="fill: #0000ff; fill-opacity: 1; stroke-opacity: 1; stroke-width: 0.02; stroke-linecap: round; stroke: #0000ff" fill-rule="evenodd" d="M 762.884 122.956 L 762.884,175.769 L 735.697,175.769 L 735.697,100.144 L 725.384,100.144 L 725.384,175.769 L 698.822,175.769 L 698.822,122.956 L 688.822,122.956 L 688.822,193.581 L 698.822,193.581 L 698.822,185.769 L 762.884,185.769 L 762.884,193.581 L 773.197,193.581 L 773.197,122.956 L 762.884,122.956M 817.494 165.144 L 811.556,165.144 L 811.556,100.144 L 803.744,100.144 L 803.744,165.144 L 798.431,165.144 L 798.431,115.769 L 791.244,115.769 L 791.244,182.644 L 798.431,182.644 L 798.431,172.956 L 817.494,172.956 L 817.494,179.519 L 824.369,179.519 L 824.369,115.769 L 817.494,115.769 L 817.494,165.144M 852.806 158.269 L 852.806,169.206 L 839.994,169.206 L 839.994,158.269 L 852.806,158.269M 860.619 176.394 L 860.619,151.394 L 832.181,151.394 L 832.181,182.331 L 839.994,182.331 L 839.994,176.394 L 860.619,176.394M 831.869 136.081 C 843.431,133.581 850.306,129.831 854.369,123.894 C 861.869,127.956 870.619,132.644 875.619,136.081 L 831.869,136.081M 885.619 136.081 L 877.181,136.081 L 882.806,129.831 C 876.869,126.081 866.244,120.769 858.119,117.019 C 858.119,116.081 858.431,115.456 858.744,114.519 L 882.494,114.519 L 882.494,106.394 L 859.994,106.394 C 860.306,103.894 860.619,100.769 860.619,97.9562 L 851.556,97.9562 C 851.556,101.081 851.244,103.894 850.931,106.394 L 828.431,106.394 L 828.431,114.519 L 849.056,114.519 C 846.244,122.019 840.306,126.394 826.869,128.894 C 828.431,130.769 830.619,133.894 831.556,136.081 L 825.306,136.081 L 825.306,144.206 L 869.369,144.206 L 869.369,184.206 C 869.369,185.769 868.744,186.394 867.181,186.394 C 865.306,186.394 859.681,186.394 853.431,186.081 C 854.681,188.581 856.244,192.331 856.869,195.144 C 864.994,195.144 870.306,194.831 873.744,193.581 C 877.494,192.019 878.431,189.519 878.431,184.519 L 878.431,144.206 L 885.619,144.206 L 885.619,136.081M 922.337 173.269 L 910.15,173.269 L 910.15,144.206 L 922.337,144.206 L 922.337,173.269M 895.15 112.019 L 907.337,112.019 C 904.525,127.019 900.15,141.081 892.962,150.456 C 894.525,153.269 896.4,159.206 897.025,161.706 C 898.587,159.519 900.462,157.019 902.025,154.519 L 902.025,190.144 L 910.15,190.144 L 910.15,182.019 L 931.087,182.019 L 931.087,135.456 L 910.462,135.456 C 912.962,127.956 915.15,120.144 916.712,112.019 L 932.65,112.019 L 932.65,103.269 L 895.15,103.269 L 895.15,112.019M 955.462 141.081 L 955.462,112.644 L 970.15,112.644 L 970.15,141.081 L 955.462,141.081M 991.087 141.081 L 979.525,141.081 L 979.525,112.644 L 988.9,112.644 L 988.9,103.269 L 937.962,103.269 L 937.962,112.644 L 946.087,112.644 L 946.087,141.081 L 935.15,141.081 L 935.15,150.144 L 946.087,150.144 C 945.462,163.894 942.962,179.519 932.962,189.831 C 935.15,191.081 938.9,193.894 940.462,195.456 C 952.025,183.894 954.525,166.081 955.15,150.144 L 970.15,150.144 L 970.15,195.144 L 979.525,195.144 L 979.525,150.144 L 991.087,150.144 L 991.087,141.081M 1055.07 116.081 L 1055.07,132.644 C 1055.07,141.706 1057.57,144.519 1067.57,144.519 L 1081.32,144.519 C 1088.51,144.519 1091.32,141.706 1092.26,131.394 C 1089.76,131.081 1085.7,129.519 1083.51,128.269 C 1083.2,134.831 1082.88,135.769 1080.07,135.769 L 1068.82,135.769 C 1065.38,135.769 1064.76,135.456 1064.76,132.644 L 1064.76,116.081 L 1083.51,116.081 L 1083.51,126.081 L 1093.82,126.081 L 1093.82,107.331 L 1053.51,107.331 L 1053.51,97.6437 L 1043.51,97.6437 L 1043.51,107.331 L 1003.82,107.331 L 1003.82,127.019 L 1013.82,127.019 L 1013.82,116.081 L 1030.7,116.081 C 1028.82,128.894 1023.82,136.081 1001.95,139.831 C 1003.82,141.706 1006.32,145.456 1007.26,147.956 C 1032.26,142.644 1038.51,132.956 1040.7,116.081 L 1055.07,116.081M 1077.26 184.831 C 1074.76,184.831 1074.13,184.206 1074.13,181.081 L 1074.13,152.956 L 1046.63,152.956 L 1046.63,140.769 L 1036.95,140.769 L 1036.95,152.956 L 1007.57,152.956 L 1007.57,162.331 L 1035.7,162.331 C 1032.88,171.394 1024.76,180.769 1000.07,187.331 C 1002.57,189.519 1005.38,192.956 1006.95,195.456 C 1035.07,187.644 1043.82,174.519 1046.01,162.331 L 1063.82,162.331 L 1063.82,181.394 C 1063.82,191.394 1066.32,194.206 1075.7,194.206 L 1086.01,194.206 C 1093.82,194.206 1096.63,190.144 1097.57,173.581 C 1094.76,172.956 1090.38,171.081 1088.2,169.206 C 1087.88,182.956 1087.26,184.831 1084.76,184.831 L 1077.26,184.831M 1118.43 114.206 L 1189.99,114.206 L 1189.99,125.769 L 1199.99,125.769 L 1199.99,105.456 L 1159.06,105.456 L 1159.06,97.9562 L 1149.06,97.9562 L 1149.06,105.456 L 1108.74,105.456 L 1108.74,125.769 L 1118.43,125.769 L 1118.43,114.206M 1159.06 183.269 L 1159.06,172.331 L 1192.18,172.331 L 1192.18,163.581 L 1159.06,163.581 L 1159.06,152.956 C 1166.87,152.644 1175.31,152.331 1183.12,152.019 C 1185.62,154.206 1187.49,156.394 1188.74,158.269 L 1196.56,152.956 C 1191.56,147.019 1181.24,138.269 1172.49,132.644 L 1165.62,137.331 C 1168.43,139.206 1171.24,141.706 1174.06,143.894 C 1162.81,144.206 1151.24,144.519 1140.62,144.831 C 1143.43,140.769 1146.24,136.394 1148.74,132.019 L 1189.06,132.019 L 1189.06,123.581 L 1119.99,123.581 L 1119.99,132.019 L 1137.49,132.019 C 1135.31,136.394 1132.81,141.081 1130.31,144.831 C 1124.99,145.144 1119.99,145.144 1115.62,145.144 L 1115.93,154.206 C 1124.99,153.894 1136.56,153.581 1149.06,153.269 L 1149.06,163.581 L 1117.49,163.581 L 1117.49,172.331 L 1149.06,172.331 L 1149.06,183.269 L 1107.81,183.269 L 1107.81,192.019 L 1200.93,192.019 L 1200.93,183.269 L 1159.06,183.269z"/>
    <path style="fill: #0000ff; fill-opacity: 1; stroke-opacity: 1; stroke-width: 0.02; stroke-linecap: round; stroke: #0000ff" fill-rule="evenodd" d="M 712.931 45.8469 L 712.931,49.9094 L 704.806,49.9094 L 704.806,45.8469 L 712.931,45.8469M 726.056 49.9094 L 717.619,49.9094 L 717.619,45.8469 L 726.056,45.8469 L 726.056,49.9094M 717.619 58.0344 L 717.619,53.6594 L 726.056,53.6594 L 726.056,58.0344 L 717.619,58.0344M 704.806 58.0344 L 704.806,53.6594 L 712.931,53.6594 L 712.931,58.0344 L 704.806,58.0344M 704.806 61.7844 L 712.931,61.7844 L 712.931,70.5344 L 717.619,70.5344 L 717.619,61.7844 L 726.056,61.7844 L 726.056,65.8469 C 726.056,66.4719 725.744,66.7844 725.119,66.7844 C 724.494,66.7844 722.306,66.7844 720.119,66.7844 C 720.431,67.7219 721.056,69.5969 721.369,70.8469 C 725.119,70.8469 727.306,70.8469 728.869,70.2219 C 730.744,69.5969 731.056,68.3469 731.056,65.8469 L 731.056,41.7844 L 724.181,41.7844 C 722.931,41.1594 721.681,40.5344 720.119,39.9094 C 724.181,37.7219 727.931,34.9094 731.056,32.0969 L 727.931,29.5969 L 726.681,29.9094 L 700.119,29.9094 L 700.119,33.9719 L 721.994,33.9719 C 720.119,35.2219 717.931,36.7844 715.744,37.7219 C 713.244,36.7844 710.431,35.5344 708.244,34.9094 L 705.119,37.7219 C 707.931,38.9719 711.369,40.2219 714.181,41.7844 L 699.806,41.7844 L 699.806,70.8469 L 704.806,70.8469 L 704.806,61.7844M 695.744 37.7219 C 693.869,35.2219 689.494,31.4719 686.056,28.9719 L 682.306,32.4094 C 686.056,34.9094 690.119,38.9719 691.994,41.4719 L 695.744,37.7219M 694.494 49.5969 L 681.681,49.5969 L 681.681,54.5969 L 689.494,54.5969 L 689.494,68.0344 C 686.681,70.2219 683.556,72.4094 681.056,73.9719 L 683.556,79.2844 C 686.681,76.7844 689.494,74.5969 691.994,72.0969 C 695.431,76.4719 700.431,78.3469 707.306,78.6594 C 713.869,78.9719 726.056,78.6594 732.306,78.3469 C 732.619,77.0969 733.556,74.5969 734.181,73.3469 C 726.994,73.9719 713.869,73.9719 707.619,73.6594 C 701.369,73.3469 696.681,71.7844 694.494,67.7219 L 694.494,49.5969M 784.65 30.2219 L 759.025,30.2219 L 759.025,34.2844 L 784.65,34.2844 L 784.65,30.2219M 750.9 28.0344 C 747.775,36.1594 742.463,44.2844 736.838,49.5969 C 737.775,50.8469 739.338,53.6594 739.65,54.9094 C 741.525,53.0344 743.4,50.8469 745.275,48.3469 L 745.275,79.5969 L 750.275,79.5969 L 750.275,40.8469 C 752.463,37.0969 754.338,33.3469 755.9,29.5969 L 750.9,28.0344M 781.213 65.8469 L 781.213,73.0344 L 762.463,73.0344 L 762.463,65.8469 L 781.213,65.8469M 757.463 79.5969 L 762.463,79.5969 L 762.463,77.0969 L 781.213,77.0969 L 781.213,79.5969 L 786.525,79.5969 L 786.525,61.7844 L 757.463,61.7844 L 757.463,79.5969M 758.088 58.0344 L 785.588,58.0344 L 785.588,53.9719 L 758.088,53.9719 L 758.088,58.0344M 785.9 45.8469 L 758.088,45.8469 L 758.088,50.2219 L 785.9,50.2219 L 785.9,45.8469M 753.713 38.0344 L 753.713,42.4094 L 789.963,42.4094 L 789.963,38.0344 L 753.713,38.0344M 823.947 29.5969 L 817.384,29.5969 C 817.697,30.8469 817.697,33.0344 817.697,34.5969 L 817.697,38.0344 L 807.384,38.0344 C 805.509,38.0344 802.072,37.7219 800.197,37.7219 L 800.197,43.3469 C 802.072,43.3469 805.509,43.3469 807.384,43.3469 L 829.572,43.3469 C 827.697,45.8469 823.634,49.5969 818.947,52.7219 C 813.947,56.1594 806.759,59.9094 795.822,62.4094 L 799.259,67.7219 C 806.447,65.5344 812.384,63.0344 817.697,60.2219 L 817.697,71.4719 C 817.697,73.3469 817.384,76.4719 817.384,78.0344 L 823.634,78.0344 C 823.634,76.1594 823.322,73.3469 823.322,71.4719 L 823.322,56.4719 C 828.322,53.0344 833.009,48.3469 835.822,44.9094 C 837.072,43.9719 838.322,42.4094 839.572,41.1594 L 835.822,37.4094 C 834.884,37.7219 833.322,38.0344 831.759,38.0344 L 823.634,38.0344 L 823.634,34.5969 C 823.634,33.0344 823.634,30.8469 823.947,29.5969 L 823.947,29.5969M 841.447 68.3469 L 845.197,63.3469 C 839.884,59.5969 836.759,58.0344 831.447,55.2219 L 828.009,59.5969 C 833.009,62.0969 836.447,64.5969 841.447,68.3469 L 841.447,68.3469M 876.291 42.0969 L 870.978,43.9719 C 872.228,46.7844 875.041,53.6594 875.666,56.4719 L 880.978,54.5969 C 880.041,52.0969 877.228,44.5969 876.291,42.0969 L 876.291,42.0969M 896.916 45.8469 L 890.666,43.9719 C 890.041,50.8469 887.228,58.3469 883.166,63.0344 C 878.478,68.9719 870.978,73.3469 864.728,75.2219 L 869.416,79.9094 C 875.666,77.4094 882.853,73.0344 888.166,66.1594 C 891.916,61.1594 894.416,55.2219 895.978,49.2844 C 896.291,48.3469 896.603,47.0969 896.916,45.8469 L 896.916,45.8469M 863.166 45.2219 L 857.853,47.0969 C 859.103,49.2844 861.916,57.0969 863.166,59.9094 L 868.478,58.0344 C 867.228,54.9094 864.416,47.7219 863.166,45.2219 L 863.166,45.2219M 923.4 69.9094 C 923.4,72.0969 923.4,75.2219 923.088,77.4094 L 929.963,77.4094 C 929.65,75.2219 929.65,71.7844 929.65,69.9094 L 929.65,52.4094 C 935.588,54.5969 944.963,58.0344 950.9,61.4719 L 953.4,55.2219 C 947.775,52.4094 937.15,48.3469 929.65,46.1594 L 929.65,37.4094 C 929.65,35.2219 929.65,32.7219 929.963,30.8469 L 923.088,30.8469 C 923.4,33.0344 923.4,35.5344 923.4,37.4094 L 923.4,69.9094M 1011.68 37.4094 L 1007.31,34.5969 C 1006.06,34.9094 1004.49,34.9094 1002.93,34.9094 L 974.806,34.9094 C 972.306,34.9094 969.806,34.9094 968.244,34.9094 C 968.556,36.1594 968.556,37.7219 968.556,38.9719 L 968.556,51.1594 C 968.556,52.4094 968.556,53.6594 968.244,55.2219 L 974.806,55.2219 C 974.806,53.6594 974.806,51.7844 974.806,51.1594 L 974.806,40.5344 L 1004.18,40.5344 C 1003.56,47.0969 1001.99,53.6594 998.869,58.6594 C 994.181,65.8469 985.744,70.5344 977.931,72.7219 L 982.931,77.7219 C 991.994,74.5969 999.494,68.9719 1004.18,61.7844 C 1008.56,54.9094 1009.81,47.0969 1010.74,40.5344 C 1010.74,39.9094 1011.37,38.0344 1011.68,37.4094 L 1011.68,37.4094M 1023.48 49.9094 L 1023.48,57.0969 C 1025.35,56.7844 1028.79,56.7844 1031.92,56.7844 L 1062.54,56.7844 C 1065.04,56.7844 1067.54,57.0969 1068.79,57.0969 L 1068.79,49.9094 C 1067.54,50.2219 1065.35,50.2219 1062.54,50.2219 L 1031.92,50.2219 C 1028.79,50.2219 1025.35,50.2219 1023.48,49.9094 L 1023.48,49.9094M 1105.51 31.1594 L 1098.95,28.9719 C 1098.63,30.8469 1097.7,33.0344 1096.76,34.2844 C 1094.26,39.2844 1088.95,47.0969 1079.26,53.0344 L 1083.95,56.4719 C 1089.88,52.7219 1094.88,47.7219 1098.32,42.7219 L 1116.13,42.7219 C 1115.2,47.4094 1111.76,54.5969 1107.38,59.5969 C 1102.38,65.2219 1095.82,70.2219 1084.88,73.6594 L 1090.2,78.3469 C 1100.82,74.2844 1107.38,68.9719 1112.7,62.7219 C 1117.7,56.4719 1121.13,48.6594 1122.7,43.3469 C 1123.01,42.0969 1123.63,40.8469 1124.26,39.9094 L 1119.57,37.0969 C 1118.63,37.4094 1117.07,37.7219 1115.51,37.7219 L 1101.76,37.7219 C 1102.07,37.0969 1102.38,36.7844 1102.7,36.1594 C 1103.32,35.2219 1104.26,33.0344 1105.51,31.1594 L 1105.51,31.1594M 1148.24 68.0344 L 1141.68,68.0344 L 1141.68,52.4094 L 1148.24,52.4094 L 1148.24,68.0344M 1133.56 35.5344 L 1140.12,35.5344 C 1138.87,43.3469 1136.37,50.8469 1132.62,55.8469 C 1133.56,57.4094 1134.49,60.5344 1134.81,61.7844 C 1135.74,60.5344 1136.37,59.2844 1137.31,58.0344 L 1137.31,77.0969 L 1141.68,77.0969 L 1141.68,72.7219 L 1152.93,72.7219 L 1152.93,47.7219 L 1141.99,47.7219 C 1143.24,43.9719 1144.49,39.5969 1145.12,35.5344 L 1153.56,35.5344 L 1153.56,30.5344 L 1133.56,30.5344 L 1133.56,35.5344M 1165.74 50.8469 L 1165.74,35.5344 L 1173.87,35.5344 L 1173.87,50.8469 L 1165.74,50.8469M 1185.12 50.8469 L 1178.87,50.8469 L 1178.87,35.5344 L 1183.87,35.5344 L 1183.87,30.8469 L 1156.68,30.8469 L 1156.68,35.5344 L 1161.06,35.5344 L 1161.06,50.8469 L 1155.12,50.8469 L 1155.12,55.8469 L 1160.74,55.8469 C 1160.74,63.0344 1159.18,71.4719 1153.87,76.7844 C 1155.12,77.7219 1156.99,78.9719 1157.93,79.9094 C 1164.18,73.6594 1165.43,64.2844 1165.74,55.8469 L 1173.87,55.8469 L 1173.87,79.5969 L 1178.87,79.5969 L 1178.87,55.8469 L 1185.12,55.8469 L 1185.12,50.8469M 1219.03 37.4094 L 1219.03,46.4719 C 1219.03,51.1594 1220.28,52.7219 1225.59,52.7219 L 1233.09,52.7219 C 1236.84,52.7219 1238.4,51.1594 1239.03,45.8469 C 1237.46,45.5344 1235.28,44.5969 1234.34,43.9719 C 1234.03,47.4094 1233.71,48.0344 1232.46,48.0344 L 1226.53,48.0344 C 1224.65,48.0344 1224.34,47.7219 1224.34,46.4719 L 1224.34,37.4094 L 1234.34,37.4094 L 1234.34,43.0344 L 1239.65,43.0344 L 1239.65,32.7219 L 1218.09,32.7219 L 1218.09,27.7219 L 1212.78,27.7219 L 1212.78,32.7219 L 1191.53,32.7219 L 1191.53,43.3469 L 1196.84,43.3469 L 1196.84,37.4094 L 1205.9,37.4094 C 1204.96,44.2844 1202.46,48.3469 1190.59,50.2219 C 1191.84,51.1594 1193.09,53.3469 1193.4,54.5969 C 1206.84,51.7844 1210.28,46.4719 1211.53,37.4094 L 1219.03,37.4094M 1230.9 74.2844 C 1229.34,74.2844 1229.03,73.9719 1229.03,72.4094 L 1229.03,57.0969 L 1214.65,57.0969 L 1214.65,50.8469 L 1209.34,50.8469 L 1209.34,57.0969 L 1193.71,57.0969 L 1193.71,62.0969 L 1208.71,62.0969 C 1207.15,67.0969 1202.78,72.0969 1189.65,75.5344 C 1190.9,76.7844 1192.46,78.6594 1193.4,79.9094 C 1208.4,75.8469 1213.09,68.6594 1214.34,62.0969 L 1223.71,62.0969 L 1223.71,72.4094 C 1223.71,77.7219 1224.96,79.2844 1229.96,79.2844 L 1235.59,79.2844 C 1239.65,79.2844 1241.21,77.0969 1241.53,68.3469 C 1240.28,67.7219 1237.78,66.7844 1236.84,65.8469 C 1236.53,73.0344 1236.21,74.2844 1234.96,74.2844 L 1230.9,74.2844M 1252.7 36.4719 L 1290.82,36.4719 L 1290.82,42.7219 L 1296.45,42.7219 L 1296.45,31.7844 L 1274.57,31.7844 L 1274.57,27.7219 L 1268.95,27.7219 L 1268.95,31.7844 L 1247.7,31.7844 L 1247.7,42.7219 L 1252.7,42.7219 L 1252.7,36.4719M 1274.57 73.3469 L 1274.57,67.4094 L 1292.07,67.4094 L 1292.07,63.0344 L 1274.57,63.0344 L 1274.57,57.0969 C 1278.63,57.0969 1283.01,56.7844 1287.38,56.7844 C 1288.63,58.0344 1289.57,58.9719 1290.51,59.9094 L 1294.57,57.0969 C 1291.76,53.9719 1286.13,49.2844 1281.76,46.4719 L 1278.01,48.9719 C 1279.57,49.9094 1281.13,51.1594 1282.7,52.4094 C 1276.45,52.4094 1270.2,52.7219 1264.88,52.7219 C 1266.13,50.8469 1267.7,48.3469 1268.95,46.1594 L 1290.51,46.1594 L 1290.51,41.4719 L 1253.63,41.4719 L 1253.63,46.1594 L 1263.01,46.1594 C 1261.76,48.3469 1260.51,50.8469 1259.26,53.0344 C 1256.45,53.0344 1253.63,53.0344 1251.13,53.0344 L 1251.45,57.7219 C 1256.45,57.7219 1262.38,57.4094 1268.95,57.4094 L 1268.95,63.0344 L 1252.38,63.0344 L 1252.38,67.4094 L 1268.95,67.4094 L 1268.95,73.3469 L 1247.07,73.3469 L 1247.07,78.0344 L 1296.76,78.0344 L 1296.76,73.3469 L 1274.57,73.3469z"/>
    <path style="fill: #0000ff; fill-opacity: 1; stroke-opacity: 1; stroke-width: 0.02; stroke-linecap: round; stroke: #0000ff" fill-rule="evenodd" d="M 701.15 -112.278 L 723.025,-112.278 L 723.025,-103.841 L 701.15,-103.841 L 701.15,-112.278M 701.15 -127.903 L 723.025,-127.903 L 723.025,-119.466 L 701.15,-119.466 L 701.15,-127.903M 756.462 -127.903 L 756.462,-119.466 L 733.337,-119.466 L 733.337,-127.903 L 756.462,-127.903M 756.462 -103.841 L 733.337,-103.841 L 733.337,-112.278 L 756.462,-112.278 L 756.462,-103.841M 766.462 -96.3406 L 766.462,-135.403 L 733.337,-135.403 L 733.337,-143.216 L 774.9,-143.216 L 774.9,-152.278 L 733.337,-152.278 L 733.337,-161.653 L 723.025,-161.653 L 723.025,-152.278 L 682.712,-152.278 L 682.712,-143.216 L 723.025,-143.216 L 723.025,-135.403 L 691.775,-135.403 L 691.775,-96.3406 L 715.525,-96.3406 C 706.462,-86.9656 692.712,-78.8406 679.9,-74.1531 C 682.087,-72.2781 685.212,-68.5281 686.775,-66.0281 C 699.587,-71.3406 713.337,-80.7156 723.025,-91.3406 L 723.025,-64.7781 L 733.337,-64.7781 L 733.337,-91.6531 C 743.337,-80.7156 757.4,-71.3406 770.525,-66.0281 C 772.087,-68.5281 775.212,-72.2781 777.4,-74.4656 C 764.587,-78.8406 750.525,-86.9656 741.15,-96.3406 L 766.462,-96.3406M 882.009 -140.403 L 882.009,-149.153 L 833.884,-149.153 C 835.134,-152.591 836.384,-156.028 837.634,-159.778 L 827.634,-161.966 C 824.509,-149.466 818.259,-137.591 810.759,-130.091 C 812.947,-128.841 817.322,-126.028 819.197,-124.153 C 822.947,-128.528 826.384,-134.153 829.822,-140.403 L 882.009,-140.403M 813.884 -149.778 C 810.134,-153.528 802.322,-158.216 796.072,-160.716 L 790.447,-153.841 C 796.697,-150.716 804.509,-145.716 807.947,-141.966 L 813.884,-149.778M 808.884 -122.591 C 805.134,-126.341 797.322,-130.403 791.072,-132.903 L 785.759,-125.716 C 792.009,-122.903 799.509,-118.216 802.947,-114.778 L 808.884,-122.591M 796.697 -65.7156 C 801.697,-75.7156 807.322,-88.5281 811.697,-99.7781 L 803.884,-105.403 C 799.197,-93.2156 792.634,-79.4656 787.947,-71.3406 L 796.697,-65.7156M 850.134 -87.9031 C 850.759,-91.9656 851.384,-96.6531 851.697,-101.966 L 865.759,-101.966 C 865.447,-96.3406 864.822,-91.6531 864.509,-87.9031 L 850.134,-87.9031M 843.259 -101.966 C 842.634,-96.9656 842.322,-91.9656 841.697,-87.9031 L 828.572,-87.9031 C 829.197,-92.2781 830.134,-96.9656 830.759,-101.966 L 843.259,-101.966M 845.447 -123.528 C 845.134,-119.466 844.509,-115.091 844.197,-110.716 L 831.697,-110.716 C 832.322,-115.091 832.947,-119.153 833.259,-123.528 L 845.447,-123.528M 852.634 -110.716 C 853.259,-115.091 853.572,-119.466 853.884,-123.528 L 867.009,-123.528 C 866.697,-118.841 866.384,-114.778 866.384,-110.716 L 852.634,-110.716M 883.884 -101.966 L 883.884,-110.716 L 875.447,-110.716 C 875.447,-115.716 875.759,-121.341 876.072,-127.591 C 876.072,-128.841 876.384,-131.966 876.384,-131.966 L 825.134,-131.966 C 824.509,-125.403 823.884,-118.216 822.634,-110.716 L 812.009,-110.716 L 812.009,-101.966 L 821.384,-101.966 C 820.134,-91.9656 818.572,-82.5906 817.009,-75.4031 L 826.384,-74.4656 L 827.322,-79.4656 L 863.259,-79.4656 C 862.634,-76.6531 862.009,-75.0906 861.384,-74.1531 C 860.447,-72.9031 859.197,-72.5906 857.322,-72.5906 C 855.447,-72.5906 850.759,-72.5906 845.759,-73.2156 C 847.322,-71.0281 848.259,-67.2781 848.259,-65.0906 C 853.259,-64.7781 858.572,-64.4656 861.697,-65.0906 C 864.822,-65.4031 867.322,-66.0281 869.197,-69.1531 C 870.759,-70.7156 871.697,-73.8406 872.634,-79.4656 L 883.259,-79.4656 L 883.259,-87.9031 L 873.884,-87.9031 C 874.197,-91.6531 874.509,-96.3406 874.822,-101.966 L 883.884,-101.966M 986.541 -122.278 L 986.541,-132.591 L 944.041,-132.591 C 945.291,-142.903 945.291,-153.216 945.291,-161.653 L 934.666,-161.653 C 934.666,-153.216 934.666,-142.903 933.416,-132.591 L 894.041,-132.591 L 894.041,-122.278 L 931.541,-122.278 C 927.478,-103.216 917.166,-84.1531 891.853,-72.9031 C 894.666,-71.0281 897.791,-67.2781 899.353,-64.7781 C 923.416,-76.0281 934.978,-94.4656 940.291,-113.528 C 948.728,-91.0281 961.541,-73.8406 981.228,-64.7781 C 982.791,-67.5906 986.228,-71.9656 988.416,-73.8406 C 968.416,-82.2781 955.291,-100.091 948.103,-122.278 L 986.541,-122.278M 1010.84 -136.028 L 1081.46,-136.028 L 1081.46,-120.403 L 1091.15,-120.403 L 1091.15,-144.778 L 1075.84,-144.778 C 1079.27,-148.528 1082.71,-153.216 1085.84,-157.903 L 1075.21,-161.028 C 1073.02,-156.028 1068.65,-149.466 1065.21,-144.778 L 1047.09,-144.778 L 1052.4,-146.653 C 1050.84,-151.028 1047.4,-157.591 1043.65,-162.278 L 1035.21,-159.153 C 1038.02,-154.778 1041.15,-148.841 1042.71,-144.778 L 1023.02,-144.778 L 1026.77,-146.341 C 1024.9,-150.403 1020.84,-156.341 1017.09,-160.716 L 1008.34,-156.653 C 1011.46,-153.216 1014.9,-148.528 1016.77,-144.778 L 1001.46,-144.778 L 1001.46,-120.403 L 1010.84,-120.403 L 1010.84,-136.028M 1092.71 -102.591 L 1051.15,-102.591 L 1051.15,-103.841 C 1060.21,-108.528 1069.59,-115.403 1075.84,-121.966 L 1069.59,-126.966 L 1067.4,-126.341 L 1017.71,-126.341 L 1017.71,-117.591 L 1058.02,-117.591 C 1054.27,-114.778 1050.21,-111.966 1046.15,-109.778 L 1041.15,-109.778 L 1041.15,-102.591 L 999.587,-102.591 L 999.587,-93.2156 L 1041.15,-93.2156 L 1041.15,-76.0281 C 1041.15,-74.4656 1040.52,-73.8406 1038.34,-73.8406 C 1036.15,-73.8406 1028.96,-73.8406 1021.46,-74.1531 C 1023.02,-71.3406 1024.9,-67.2781 1025.52,-64.4656 C 1034.9,-64.4656 1041.15,-64.7781 1045.21,-66.0281 C 1049.59,-67.5906 1051.15,-70.4031 1051.15,-75.7156 L 1051.15,-93.2156 L 1092.71,-93.2156 L 1092.71,-102.591z"/>
    <g/>
    <path style="fill: #0000ff; fill-opacity: 1; stroke-opacity: 1; stroke-width: 0.02; stroke-linecap: round; stroke: #0000ff" fill-rule="evenodd" d="M 684.284 -16.9687 C 685.534,-21.3437 686.472,-27.9062 686.472,-32.2812 L 682.722,-32.9062 C 682.409,-28.5312 681.472,-22.2812 680.222,-18.2187 L 684.284,-16.9687M 698.659 -27.9062 C 698.034,-30.0937 696.472,-33.2187 695.534,-35.7187 L 692.097,-34.4687 L 692.097,-43.8437 L 687.409,-43.8437 L 687.409,8.03125 L 692.097,8.03125 L 692.097,-34.1562 C 693.347,-31.3437 694.284,-28.2187 694.909,-26.0312 L 698.659,-27.9062M 704.909 -4.15625 L 704.909,-7.90625 L 723.659,-7.90625 L 723.659,-4.15625 L 704.909,-4.15625M 723.659 -15.0937 L 723.659,-11.6562 L 704.909,-11.6562 L 704.909,-15.0937 L 723.659,-15.0937M 728.659 -19.1562 L 699.909,-19.1562 L 699.909,8.03125 L 704.909,8.03125 L 704.909,-0.40625 L 723.659,-0.40625 L 723.659,2.71875 C 723.659,3.34375 723.347,3.34375 722.722,3.65625 C 721.784,3.65625 719.284,3.65625 716.472,3.34375 C 717.097,4.59375 717.722,6.78125 718.034,8.03125 C 722.097,8.03125 724.597,8.03125 726.472,7.09375 C 728.034,6.46875 728.659,5.21875 728.659,2.71875 L 728.659,-19.1562M 716.784 -25.7187 L 716.784,-29.1562 L 729.597,-29.1562 L 729.597,-32.9062 L 716.784,-32.9062 L 716.784,-35.7187 L 731.159,-35.7187 L 731.159,-39.4687 L 716.784,-39.4687 L 716.784,-43.8437 L 711.472,-43.8437 L 711.472,-39.4687 L 697.722,-39.4687 L 697.722,-35.7187 L 711.472,-35.7187 L 711.472,-32.9062 L 699.284,-32.9062 L 699.284,-29.1562 L 711.472,-29.1562 L 711.472,-25.7187 L 696.159,-25.7187 L 696.159,-21.9687 L 732.722,-21.9687 L 732.722,-25.7187 L 716.784,-25.7187M 754.753 -17.2812 L 745.691,-17.2812 L 747.566,-17.9062 C 747.253,-19.4687 746.316,-22.2812 745.378,-24.4687 L 755.066,-24.4687 C 754.753,-22.5937 753.503,-19.7812 752.878,-17.9062 L 754.753,-17.2812M 752.566 -33.8437 L 760.378,-33.8437 L 760.378,-38.2187 L 752.566,-38.2187 L 752.566,-43.5312 L 747.878,-43.5312 L 747.878,-38.2187 L 739.441,-38.2187 L 739.441,-33.8437 L 747.878,-33.8437 L 747.878,-29.1562 L 737.566,-29.1562 L 737.566,-24.4687 L 743.503,-24.4687 L 741.316,-23.8437 C 742.253,-21.9687 743.191,-19.1562 743.191,-17.2812 L 738.503,-17.2812 L 738.503,-12.5937 L 747.878,-12.5937 L 747.878,-7.28125 L 738.816,-7.28125 L 738.816,-2.90625 L 747.878,-2.90625 L 747.878,8.03125 L 752.566,8.03125 L 752.566,-2.90625 L 761.316,-2.90625 L 761.316,-7.28125 L 752.566,-7.28125 L 752.566,-12.5937 L 761.941,-12.5937 L 761.941,-17.2812 L 756.941,-17.2812 C 757.878,-19.1562 758.816,-21.6562 759.753,-23.8437 L 757.253,-24.4687 L 762.566,-24.4687 L 762.566,-29.1562 L 752.566,-29.1562 L 752.566,-33.8437M 768.816 -17.9062 C 770.378,-12.2812 772.878,-6.96875 775.691,-2.59375 C 773.816,-0.09375 771.628,2.40625 768.816,4.28125 L 768.816,-17.9062M 782.253 -17.9062 C 781.316,-14.1562 780.066,-10.4062 778.191,-6.96875 C 776.316,-10.4062 774.441,-14.1562 773.191,-17.9062 L 782.253,-17.9062M 784.753 -22.2812 L 768.816,-22.2812 L 768.816,-36.6562 L 781.628,-36.6562 L 781.628,-30.7187 C 781.628,-30.0937 781.628,-29.7812 780.691,-29.7812 C 779.753,-29.7812 776.941,-29.7812 773.503,-29.7812 C 774.128,-28.5312 775.066,-26.6562 775.066,-25.4062 C 779.441,-25.4062 782.253,-25.4062 784.128,-26.0312 C 786.003,-26.9687 786.628,-28.2187 786.628,-30.7187 L 786.628,-41.3437 L 764.128,-41.3437 L 764.128,8.03125 L 768.816,8.03125 L 768.816,5.21875 C 770.066,5.84375 771.003,7.09375 771.628,8.03125 C 774.441,6.46875 776.628,3.96875 778.816,1.46875 C 781.003,4.28125 783.503,6.46875 786.628,8.03125 C 787.253,6.78125 788.816,4.90625 790.066,3.96875 C 786.941,2.40625 784.128,-0.09375 781.628,-2.90625 C 784.753,-8.21875 786.941,-14.4687 787.878,-21.3437 L 784.753,-22.2812M 825.3 -25.7187 L 825.3,-21.6562 L 817.175,-21.6562 L 817.175,-25.7187 L 825.3,-25.7187M 838.425 -21.6562 L 829.987,-21.6562 L 829.987,-25.7187 L 838.425,-25.7187 L 838.425,-21.6562M 829.987 -13.5312 L 829.987,-17.9062 L 838.425,-17.9062 L 838.425,-13.5312 L 829.987,-13.5312M 817.175 -13.5312 L 817.175,-17.9062 L 825.3,-17.9062 L 825.3,-13.5312 L 817.175,-13.5312M 817.175 -9.78125 L 825.3,-9.78125 L 825.3,-1.03125 L 829.987,-1.03125 L 829.987,-9.78125 L 838.425,-9.78125 L 838.425,-5.71875 C 838.425,-5.09375 838.112,-4.78125 837.487,-4.78125 C 836.862,-4.78125 834.675,-4.78125 832.487,-4.78125 C 832.8,-3.84375 833.425,-1.96875 833.737,-0.71875 C 837.487,-0.71875 839.675,-0.71875 841.237,-1.34375 C 843.112,-1.96875 843.425,-3.21875 843.425,-5.71875 L 843.425,-29.7812 L 836.55,-29.7812 C 835.3,-30.4062 834.05,-31.0312 832.487,-31.6562 C 836.55,-33.8437 840.3,-36.6562 843.425,-39.4687 L 840.3,-41.9687 L 839.05,-41.6562 L 812.487,-41.6562 L 812.487,-37.5937 L 834.362,-37.5937 C 832.487,-36.3437 830.3,-34.7812 828.112,-33.8437 C 825.612,-34.7812 822.8,-36.0312 820.612,-36.6562 L 817.487,-33.8437 C 820.3,-32.5937 823.737,-31.3437 826.55,-29.7812 L 812.175,-29.7812 L 812.175,-0.71875 L 817.175,-0.71875 L 817.175,-9.78125M 808.112 -33.8437 C 806.237,-36.3437 801.862,-40.0937 798.425,-42.5937 L 794.675,-39.1562 C 798.425,-36.6562 802.487,-32.5937 804.362,-30.0937 L 808.112,-33.8437M 806.862 -21.9687 L 794.05,-21.9687 L 794.05,-16.9687 L 801.862,-16.9687 L 801.862,-3.53125 C 799.05,-1.34375 795.925,0.84375 793.425,2.40625 L 795.925,7.71875 C 799.05,5.21875 801.862,3.03125 804.362,0.53125 C 807.8,4.90625 812.8,6.78125 819.675,7.09375 C 826.237,7.40625 838.425,7.09375 844.675,6.78125 C 844.987,5.53125 845.925,3.03125 846.55,1.78125 C 839.362,2.40625 826.237,2.40625 819.987,2.09375 C 813.737,1.78125 809.05,0.21875 806.862,-3.84375 L 806.862,-21.9687M 897.019 -41.3437 L 871.394,-41.3437 L 871.394,-37.2812 L 897.019,-37.2812 L 897.019,-41.3437M 863.269 -43.5312 C 860.144,-35.4062 854.831,-27.2812 849.206,-21.9687 C 850.144,-20.7187 851.706,-17.9062 852.019,-16.6562 C 853.894,-18.5312 855.769,-20.7187 857.644,-23.2187 L 857.644,8.03125 L 862.644,8.03125 L 862.644,-30.7187 C 864.831,-34.4687 866.706,-38.2187 868.269,-41.9687 L 863.269,-43.5312M 893.581 -5.71875 L 893.581,1.46875 L 874.831,1.46875 L 874.831,-5.71875 L 893.581,-5.71875M 869.831 8.03125 L 874.831,8.03125 L 874.831,5.53125 L 893.581,5.53125 L 893.581,8.03125 L 898.894,8.03125 L 898.894,-9.78125 L 869.831,-9.78125 L 869.831,8.03125M 870.456 -13.5312 L 897.956,-13.5312 L 897.956,-17.5937 L 870.456,-17.5937 L 870.456,-13.5312M 898.269 -25.7187 L 870.456,-25.7187 L 870.456,-21.3437 L 898.269,-21.3437 L 898.269,-25.7187M 866.081 -33.5312 L 866.081,-29.1562 L 902.331,-29.1562 L 902.331,-33.5312 L 866.081,-33.5312M 913.816 -30.0937 L 951.628,-30.0937 L 951.628,-21.6562 L 956.941,-21.6562 L 956.941,-34.7812 L 948.816,-34.7812 C 950.378,-36.6562 952.253,-39.1562 953.816,-41.6562 L 948.503,-43.5312 C 946.941,-40.7187 944.753,-37.2812 942.878,-34.7812 L 933.191,-34.7812 L 936.003,-35.7187 C 935.378,-37.9062 933.503,-41.6562 931.628,-44.1562 L 926.941,-42.2812 C 928.503,-40.0937 930.066,-36.9687 931.003,-34.7812 L 920.378,-34.7812 L 922.566,-35.7187 C 921.628,-37.5937 919.128,-41.0312 917.253,-43.2187 L 912.566,-41.0312 C 914.441,-39.1562 916.003,-36.6562 917.253,-34.7812 L 908.816,-34.7812 L 908.816,-21.6562 L 913.816,-21.6562 L 913.816,-30.0937M 957.878 -11.9687 L 935.378,-11.9687 L 935.378,-12.9062 C 940.378,-15.4062 945.378,-18.8437 948.816,-22.5937 L 945.378,-25.0937 L 944.128,-24.7812 L 917.566,-24.7812 L 917.566,-20.4062 L 939.128,-20.4062 C 937.253,-18.8437 935.066,-17.2812 932.566,-16.0312 L 930.066,-16.0312 L 930.066,-11.9687 L 907.878,-11.9687 L 907.878,-7.28125 L 930.066,-7.28125 L 930.066,2.09375 C 930.066,2.71875 929.753,3.03125 928.503,3.03125 C 927.566,3.34375 923.503,3.34375 919.753,3.03125 C 920.378,4.59375 921.316,6.78125 921.941,8.03125 C 926.628,8.03125 930.066,8.03125 932.253,7.40625 C 934.753,6.46875 935.378,5.21875 935.378,2.09375 L 935.378,-7.28125 L 957.878,-7.28125 L 957.878,-11.9687M 991.472 -37.9062 L 980.534,-37.9062 L 980.534,-43.5312 L 975.534,-43.5312 L 975.534,-37.9062 L 964.597,-37.9062 L 964.597,-33.2187 L 991.472,-33.2187 L 991.472,-37.9062M 984.909 -22.5937 C 986.159,-25.0937 987.409,-28.5312 988.659,-31.6562 L 983.659,-32.9062 C 983.034,-30.0937 981.784,-26.0312 980.847,-23.8437 L 984.909,-22.5937M 974.909 -23.8437 C 974.597,-26.0312 973.659,-29.7812 972.409,-32.5937 L 968.034,-31.6562 C 968.972,-28.8437 969.909,-25.0937 970.222,-22.9062 L 974.909,-23.8437M 984.284 -8.53125 L 984.284,0.53125 L 971.784,0.53125 L 971.784,-8.53125 L 984.284,-8.53125M 966.784 8.03125 L 971.784,8.03125 L 971.784,5.21875 L 984.284,5.21875 L 984.284,8.03125 L 989.284,8.03125 L 989.284,-13.2187 L 966.784,-13.2187 L 966.784,8.03125M 963.347 -17.5937 L 992.097,-17.5937 L 992.097,-22.2812 L 963.347,-22.2812 L 963.347,-17.5937M 1011.47 -40.7187 L 1010.53,-40.4062 L 994.284,-40.4062 L 994.284,8.03125 L 999.284,8.03125 L 999.284,-35.7187 L 1008.35,-35.7187 C 1006.78,-31.0312 1004.6,-25.0937 1002.72,-20.7187 C 1007.72,-16.0312 1009.28,-11.9687 1009.28,-8.84375 C 1009.28,-6.65625 1008.97,-5.09375 1007.72,-4.46875 C 1007.1,-4.15625 1006.47,-3.84375 1005.53,-3.84375 C 1004.6,-3.84375 1003.03,-3.84375 1001.78,-4.15625 C 1002.41,-2.59375 1003.03,-0.40625 1003.03,1.15625 C 1004.6,1.15625 1006.47,1.15625 1007.72,1.15625 C 1009.28,0.84375 1010.53,0.53125 1011.47,-0.40625 C 1013.66,-1.65625 1014.28,-4.46875 1014.28,-8.21875 C 1014.28,-11.9687 1013.03,-16.3437 1008.03,-21.6562 C 1010.22,-26.3437 1013.03,-32.9062 1015.22,-38.2187 L 1011.47,-40.7187M 1079.36 -16.9687 C 1080.61,-21.3437 1081.55,-27.9062 1081.55,-32.2812 L 1077.8,-32.9062 C 1077.49,-28.5312 1076.55,-22.2812 1075.3,-18.2187 L 1079.36,-16.9687M 1093.74 -27.9062 C 1093.11,-30.0937 1091.55,-33.2187 1090.61,-35.7187 L 1087.17,-34.4687 L 1087.17,-43.8437 L 1082.49,-43.8437 L 1082.49,8.03125 L 1087.17,8.03125 L 1087.17,-34.1562 C 1088.42,-31.3437 1089.36,-28.2187 1089.99,-26.0312 L 1093.74,-27.9062M 1099.99 -4.15625 L 1099.99,-7.90625 L 1118.74,-7.90625 L 1118.74,-4.15625 L 1099.99,-4.15625M 1118.74 -15.0937 L 1118.74,-11.6562 L 1099.99,-11.6562 L 1099.99,-15.0937 L 1118.74,-15.0937M 1123.74 -19.1562 L 1094.99,-19.1562 L 1094.99,8.03125 L 1099.99,8.03125 L 1099.99,-0.40625 L 1118.74,-0.40625 L 1118.74,2.71875 C 1118.74,3.34375 1118.42,3.34375 1117.8,3.65625 C 1116.86,3.65625 1114.36,3.65625 1111.55,3.34375 C 1112.17,4.59375 1112.8,6.78125 1113.11,8.03125 C 1117.17,8.03125 1119.67,8.03125 1121.55,7.09375 C 1123.11,6.46875 1123.74,5.21875 1123.74,2.71875 L 1123.74,-19.1562M 1111.86 -25.7187 L 1111.86,-29.1562 L 1124.67,-29.1562 L 1124.67,-32.9062 L 1111.86,-32.9062 L 1111.86,-35.7187 L 1126.24,-35.7187 L 1126.24,-39.4687 L 1111.86,-39.4687 L 1111.86,-43.8437 L 1106.55,-43.8437 L 1106.55,-39.4687 L 1092.8,-39.4687 L 1092.8,-35.7187 L 1106.55,-35.7187 L 1106.55,-32.9062 L 1094.36,-32.9062 L 1094.36,-29.1562 L 1106.55,-29.1562 L 1106.55,-25.7187 L 1091.24,-25.7187 L 1091.24,-21.9687 L 1127.8,-21.9687 L 1127.8,-25.7187 L 1111.86,-25.7187M 1149.91 -17.2812 L 1140.85,-17.2812 L 1142.72,-17.9062 C 1142.41,-19.4687 1141.47,-22.2812 1140.53,-24.4687 L 1150.22,-24.4687 C 1149.91,-22.5937 1148.66,-19.7812 1148.03,-17.9062 L 1149.91,-17.2812M 1147.72 -33.8437 L 1155.53,-33.8437 L 1155.53,-38.2187 L 1147.72,-38.2187 L 1147.72,-43.5312 L 1143.03,-43.5312 L 1143.03,-38.2187 L 1134.6,-38.2187 L 1134.6,-33.8437 L 1143.03,-33.8437 L 1143.03,-29.1562 L 1132.72,-29.1562 L 1132.72,-24.4687 L 1138.66,-24.4687 L 1136.47,-23.8437 C 1137.41,-21.9687 1138.35,-19.1562 1138.35,-17.2812 L 1133.66,-17.2812 L 1133.66,-12.5937 L 1143.03,-12.5937 L 1143.03,-7.28125 L 1133.97,-7.28125 L 1133.97,-2.90625 L 1143.03,-2.90625 L 1143.03,8.03125 L 1147.72,8.03125 L 1147.72,-2.90625 L 1156.47,-2.90625 L 1156.47,-7.28125 L 1147.72,-7.28125 L 1147.72,-12.5937 L 1157.1,-12.5937 L 1157.1,-17.2812 L 1152.1,-17.2812 C 1153.03,-19.1562 1153.97,-21.6562 1154.91,-23.8437 L 1152.41,-24.4687 L 1157.72,-24.4687 L 1157.72,-29.1562 L 1147.72,-29.1562 L 1147.72,-33.8437M 1163.97 -17.9062 C 1165.53,-12.2812 1168.03,-6.96875 1170.85,-2.59375 C 1168.97,-0.09375 1166.78,2.40625 1163.97,4.28125 L 1163.97,-17.9062M 1177.41 -17.9062 C 1176.47,-14.1562 1175.22,-10.4062 1173.35,-6.96875 C 1171.47,-10.4062 1169.6,-14.1562 1168.35,-17.9062 L 1177.41,-17.9062M 1179.91 -22.2812 L 1163.97,-22.2812 L 1163.97,-36.6562 L 1176.78,-36.6562 L 1176.78,-30.7187 C 1176.78,-30.0937 1176.78,-29.7812 1175.85,-29.7812 C 1174.91,-29.7812 1172.1,-29.7812 1168.66,-29.7812 C 1169.28,-28.5312 1170.22,-26.6562 1170.22,-25.4062 C 1174.6,-25.4062 1177.41,-25.4062 1179.28,-26.0312 C 1181.16,-26.9687 1181.78,-28.2187 1181.78,-30.7187 L 1181.78,-41.3437 L 1159.28,-41.3437 L 1159.28,8.03125 L 1163.97,8.03125 L 1163.97,5.21875 C 1165.22,5.84375 1166.16,7.09375 1166.78,8.03125 C 1169.6,6.46875 1171.78,3.96875 1173.97,1.46875 C 1176.16,4.28125 1178.66,6.46875 1181.78,8.03125 C 1182.41,6.78125 1183.97,4.90625 1185.22,3.96875 C 1182.1,2.40625 1179.28,-0.09375 1176.78,-2.90625 C 1179.91,-8.21875 1182.1,-14.4687 1183.03,-21.3437 L 1179.91,-22.2812M 1220.38 -25.7187 L 1220.38,-21.6562 L 1212.25,-21.6562 L 1212.25,-25.7187 L 1220.38,-25.7187M 1233.5 -21.6562 L 1225.07,-21.6562 L 1225.07,-25.7187 L 1233.5,-25.7187 L 1233.5,-21.6562M 1225.07 -13.5312 L 1225.07,-17.9062 L 1233.5,-17.9062 L 1233.5,-13.5312 L 1225.07,-13.5312M 1212.25 -13.5312 L 1212.25,-17.9062 L 1220.38,-17.9062 L 1220.38,-13.5312 L 1212.25,-13.5312M 1212.25 -9.78125 L 1220.38,-9.78125 L 1220.38,-1.03125 L 1225.07,-1.03125 L 1225.07,-9.78125 L 1233.5,-9.78125 L 1233.5,-5.71875 C 1233.5,-5.09375 1233.19,-4.78125 1232.57,-4.78125 C 1231.94,-4.78125 1229.75,-4.78125 1227.57,-4.78125 C 1227.88,-3.84375 1228.5,-1.96875 1228.82,-0.71875 C 1232.57,-0.71875 1234.75,-0.71875 1236.32,-1.34375 C 1238.19,-1.96875 1238.5,-3.21875 1238.5,-5.71875 L 1238.5,-29.7812 L 1231.63,-29.7812 C 1230.38,-30.4062 1229.13,-31.0312 1227.57,-31.6562 C 1231.63,-33.8437 1235.38,-36.6562 1238.5,-39.4687 L 1235.38,-41.9687 L 1234.13,-41.6562 L 1207.57,-41.6562 L 1207.57,-37.5937 L 1229.44,-37.5937 C 1227.57,-36.3437 1225.38,-34.7812 1223.19,-33.8437 C 1220.69,-34.7812 1217.88,-36.0312 1215.69,-36.6562 L 1212.57,-33.8437 C 1215.38,-32.5937 1218.82,-31.3437 1221.63,-29.7812 L 1207.25,-29.7812 L 1207.25,-0.71875 L 1212.25,-0.71875 L 1212.25,-9.78125M 1203.19 -33.8437 C 1201.32,-36.3437 1196.94,-40.0937 1193.5,-42.5937 L 1189.75,-39.1562 C 1193.5,-36.6562 1197.57,-32.5937 1199.44,-30.0937 L 1203.19,-33.8437M 1201.94 -21.9687 L 1189.13,-21.9687 L 1189.13,-16.9687 L 1196.94,-16.9687 L 1196.94,-3.53125 C 1194.13,-1.34375 1191,0.84375 1188.5,2.40625 L 1191,7.71875 C 1194.13,5.21875 1196.94,3.03125 1199.44,0.53125 C 1202.88,4.90625 1207.88,6.78125 1214.75,7.09375 C 1221.32,7.40625 1233.5,7.09375 1239.75,6.78125 C 1240.07,5.53125 1241,3.03125 1241.63,1.78125 C 1234.44,2.40625 1221.32,2.40625 1215.07,2.09375 C 1208.82,1.78125 1204.13,0.21875 1201.94,-3.84375 L 1201.94,-21.9687M 1292.17 -41.3437 L 1266.55,-41.3437 L 1266.55,-37.2812 L 1292.17,-37.2812 L 1292.17,-41.3437M 1258.42 -43.5312 C 1255.3,-35.4062 1249.99,-27.2812 1244.36,-21.9687 C 1245.3,-20.7187 1246.86,-17.9062 1247.17,-16.6562 C 1249.05,-18.5312 1250.92,-20.7187 1252.8,-23.2187 L 1252.8,8.03125 L 1257.8,8.03125 L 1257.8,-30.7187 C 1259.99,-34.4687 1261.86,-38.2187 1263.42,-41.9687 L 1258.42,-43.5312M 1288.74 -5.71875 L 1288.74,1.46875 L 1269.99,1.46875 L 1269.99,-5.71875 L 1288.74,-5.71875M 1264.99 8.03125 L 1269.99,8.03125 L 1269.99,5.53125 L 1288.74,5.53125 L 1288.74,8.03125 L 1294.05,8.03125 L 1294.05,-9.78125 L 1264.99,-9.78125 L 1264.99,8.03125M 1265.61 -13.5312 L 1293.11,-13.5312 L 1293.11,-17.5937 L 1265.61,-17.5937 L 1265.61,-13.5312M 1293.42 -25.7187 L 1265.61,-25.7187 L 1265.61,-21.3437 L 1293.42,-21.3437 L 1293.42,-25.7187M 1261.24 -33.5312 L 1261.24,-29.1562 L 1297.49,-29.1562 L 1297.49,-33.5312 L 1261.24,-33.5312M 1308.89 -30.0937 L 1346.71,-30.0937 L 1346.71,-21.6562 L 1352.02,-21.6562 L 1352.02,-34.7812 L 1343.89,-34.7812 C 1345.46,-36.6562 1347.33,-39.1562 1348.89,-41.6562 L 1343.58,-43.5312 C 1342.02,-40.7187 1339.83,-37.2812 1337.96,-34.7812 L 1328.27,-34.7812 L 1331.08,-35.7187 C 1330.46,-37.9062 1328.58,-41.6562 1326.71,-44.1562 L 1322.02,-42.2812 C 1323.58,-40.0937 1325.14,-36.9687 1326.08,-34.7812 L 1315.46,-34.7812 L 1317.64,-35.7187 C 1316.71,-37.5937 1314.21,-41.0312 1312.33,-43.2187 L 1307.64,-41.0312 C 1309.52,-39.1562 1311.08,-36.6562 1312.33,-34.7812 L 1303.89,-34.7812 L 1303.89,-21.6562 L 1308.89,-21.6562 L 1308.89,-30.0937M 1352.96 -11.9687 L 1330.46,-11.9687 L 1330.46,-12.9062 C 1335.46,-15.4062 1340.46,-18.8437 1343.89,-22.5937 L 1340.46,-25.0937 L 1339.21,-24.7812 L 1312.64,-24.7812 L 1312.64,-20.4062 L 1334.21,-20.4062 C 1332.33,-18.8437 1330.14,-17.2812 1327.64,-16.0312 L 1325.14,-16.0312 L 1325.14,-11.9687 L 1302.96,-11.9687 L 1302.96,-7.28125 L 1325.14,-7.28125 L 1325.14,2.09375 C 1325.14,2.71875 1324.83,3.03125 1323.58,3.03125 C 1322.64,3.34375 1318.58,3.34375 1314.83,3.03125 C 1315.46,4.59375 1316.39,6.78125 1317.02,8.03125 C 1321.71,8.03125 1325.14,8.03125 1327.33,7.40625 C 1329.83,6.46875 1330.46,5.21875 1330.46,2.09375 L 1330.46,-7.28125 L 1352.96,-7.28125 L 1352.96,-11.9687M 1396.32 -32.2812 C 1394.44,-34.7812 1390.69,-37.9062 1387.25,-40.0937 L 1383.82,-37.2812 C 1387.25,-34.7812 1391,-31.3437 1392.57,-28.8437 L 1396.32,-32.2812M 1394.75 -17.5937 C 1392.88,-19.7812 1388.5,-23.2187 1385.07,-25.4062 L 1381.94,-22.5937 C 1385.38,-20.0937 1389.44,-16.3437 1391.32,-14.1562 L 1394.75,-17.5937M 1380.07 -13.2187 C 1379.13,-14.7812 1374.44,-20.4062 1372.57,-22.2812 L 1372.57,-23.2187 L 1380.69,-23.2187 L 1380.69,-27.9062 L 1372.57,-27.9062 L 1372.57,-36.6562 C 1375.38,-37.2812 1377.88,-37.9062 1380.07,-38.8437 L 1376.94,-43.2187 C 1372.57,-41.3437 1365.38,-39.4687 1358.82,-38.5312 C 1359.44,-37.5937 1360.38,-35.7187 1360.38,-34.4687 C 1362.57,-34.7812 1365.07,-35.0937 1367.57,-35.7187 L 1367.57,-27.9062 L 1358.5,-27.9062 L 1358.5,-23.2187 L 1366.94,-23.2187 C 1364.75,-16.9687 1361,-10.4062 1357.88,-6.65625 C 1358.5,-5.09375 1359.75,-3.21875 1360.38,-1.65625 C 1362.88,-4.78125 1365.38,-9.78125 1367.57,-14.7812 L 1367.57,8.03125 L 1372.57,8.03125 L 1372.57,-16.6562 C 1374.44,-14.1562 1376.32,-11.0312 1376.94,-9.15625 L 1380.07,-13.2187M 1410.38 -7.59375 L 1409.75,-12.5937 L 1403.5,-11.6562 L 1403.5,-43.8437 L 1398.5,-43.8437 L 1398.5,-10.7187 L 1379.75,-7.59375 L 1380.69,-2.59375 L 1398.5,-5.40625 L 1398.5,8.03125 L 1403.5,8.03125 L 1403.5,-6.34375 L 1410.38,-7.59375z"/>
  </g>
</svg>
